<svg height="60" viewBox="-8.19 -8.19 120 60.000002" width="120" xmlns="http://www.w3.org/2000/svg" xmlns:xlink="http://www.w3.org/1999/xlink"><linearGradient id="a" gradientUnits="userSpaceOnUse" x1="16.059999" x2="16.059999" y1="10.61" y2="53.939999"><stop offset="0" stop-color="#0052cc"/><stop offset="1" stop-color="#2684ff"/></linearGradient><linearGradient id="b" x1="15.91" x2="15.91" xlink:href="#a" y1="-19.269997" y2="24.060002"/><linearGradient id="c" gradientUnits="userSpaceOnUse" x1="16.059999" x2="16.059999" xlink:href="#a" y1="-19.269997" y2="24.060002"/><g transform="translate(-1.317496)"><path d="m40.95714 15.786215c2.622619 0 3.8861 1.2924 3.8861 3.363354 0 1.557108-.705145 2.504719-2.153259 2.858406 1.89967.313646 2.83839 1.350235 2.83839 3.169827 0 2.055384-1.390276 3.465679-4.266483 3.465679h-5.296388v-12.857266zm-3.232112 1.683902v3.837159h2.994096c1.663885 0 2.349016-.762982 2.349016-2.001996 0-1.239013-.742971-1.839613-2.349016-1.839613zm0 5.403166v4.003992h3.603598c1.683899 0 2.446883-.607272 2.446883-1.899671 0-1.370256-.725166-2.113219-2.484701-2.113219zm16.460862 4.01289c-.627291 1.292401-1.801795 1.957509-3.307742 1.957509-2.602597 0-3.915019-2.211095-3.915019-5.089521 0-2.76053 1.370254-5.08952 4.110769-5.08952 1.428093 0 2.524736.645088 3.114216 1.917468v-1.721717h1.6839v9.787538h-1.686124zm-2.858404.391501c1.508172 0 2.858404-.958734 2.858404-3.132012v-.783002c0-2.173279-1.232343-3.132013-2.669328-3.132013-1.899669 0-2.878425 1.25236-2.878425 3.523514.01113 2.34901.952061 3.523513 2.693799 3.523513zm15.410921 1.370256h-1.683899v-5.912562c0-1.761758-.705152-2.544761-2.308973-2.544761-1.557104 0-2.642633 1.036589-2.642633 3.014117v5.443206h-1.690573v-9.787538h1.683899v1.606046a3.4300872 3.4300872 0 0 1 3.091972-1.801797c1.663885 0 2.798346.840839 3.28772 2.389048.547213-1.508169 1.859634-2.389048 3.483477-2.389048 2.193302 0 3.405616 1.48815 3.405616 4.248682v5.734607h-1.683898v-5.443206c0-2.015343-.705145-3.014117-2.308966-3.014117-1.557112 0-2.64264 1.036589-2.64264 3.014117zm13.780412.195752c-1.428093 0-2.524744-.645089-3.114217-1.917469v1.721717h-1.683906v-13.878284h1.683906v5.852503c.627292-1.2924 1.801795-1.957508 3.307741-1.957508 2.602593 0 3.915015 2.211094 3.915015 5.08952.0022 2.758307-1.368032 5.089521-4.108539 5.089521zm-.253588-8.613035c-1.508172 0-2.858404.958734-2.858404 3.132013v.783002c0 2.173278 1.232336 3.132012 2.669324 3.132012 1.899676 0 2.878433-1.252359 2.878433-3.523513-.0087-2.349009-.949844-3.523514-2.691581-3.523514zm5.730159 3.503495c0-2.936262 1.721723-5.069501 4.657971-5.069501 2.93627 0 4.62017 2.133239 4.62017 5.069501 0 2.93626-1.703925 5.116212-4.62017 5.116212-2.916234 0-4.657971-2.179952-4.657971-5.116212zm1.643861 0c0 1.859631.92092 3.543532 3.01411 3.543532 2.093211 0 2.980764-1.677228 2.980764-3.543532 0-1.866307-.88978-3.503495-2.974082-3.503495-2.084301 0-3.016348 1.643862-3.016348 3.503495zm9.008983 0c0-2.936262 1.721713-5.069501 4.657986-5.069501 2.93626 0 4.62016 2.133239 4.62016 5.069501 0 2.93626-1.70393 5.116212-4.62016 5.116212-2.916249 0-4.657986-2.179952-4.657986-5.116212zm1.643862 0c0 1.859631.92092 3.543532 3.014124 3.543532 2.0932 0 2.9763-1.677228 2.9763-3.543532 0-1.866307-.88977-3.503495-2.97408-3.503495-2.084309 0-3.016344 1.643862-3.016344 3.503495z" fill="#253858" stroke-width=".222444"/><g transform="matrix(.45559897 0 0 .45559897 .328611 18.666742)"><path d="m61.56 11.930003h-15.29a2 2 0 0 0 -2 1.7 12.57 12.57 0 0 1 -12.46 10.83l4.14 18.91a31.81 31.81 0 0 0 27.61-29.3 2 2 0 0 0 -2-2.14zm-26.46-.48 22-18.91a2 2 0 0 0 0-3l-22-18.94a2 2 0 0 0 -3.29 1.52v37.81a2 2 0 0 0 3.29 1.52z" fill="#2684ff"/><path d="m.3 16.060003a31.81 31.81 0 0 0 31.51 27.61v-19.21a12.56 12.56 0 0 1 -12.56-12.53z" fill="url(#c)"/><path d="m0 11.630003v.3h19.25a12.56 12.56 0 0 1 12.56-12.53l-4.13-18.91a31.79 31.79 0 0 0 -27.68 31.14" fill="url(#b)"/></g></g></svg>